<!-- Generator: Adobe Illustrator 21.1.0, SVG Export Plug-In  -->
<svg version="1.1"
	 xmlns="http://www.w3.org/2000/svg" xmlns:xlink="http://www.w3.org/1999/xlink" xmlns:a="http://ns.adobe.com/AdobeSVGViewerExtensions/3.0/"
	 x="0px" y="0px" width="64.6px" height="64.6px" viewBox="0 0 64.6 64.6" style="enable-background:new 0 0 64.6 64.6;"
	 xml:space="preserve">
<style type="text/css">
	.st0{fill:#FFFFFF;}
</style>
<defs>
</defs>
<g>
	<path class="st0" d="M32.3,0C14.5,0,0,14.5,0,32.3s14.5,32.3,32.3,32.3c17.8,0,32.3-14.5,32.3-32.3S50.1,0,32.3,0z M32.3,62.1
		c-16.5,0-29.8-13.4-29.8-29.8S15.8,2.4,32.3,2.4c16.5,0,29.8,13.4,29.8,29.8S48.7,62.1,32.3,62.1z"/>
	<path class="st0" d="M44.8,19.7c-3.3-3.3-7.8-5.2-12.5-5.2c-4.7,0-9.2,1.8-12.5,5.2c-3.3,3.4-5.2,7.8-5.2,12.5
		c0,4.7,1.8,9.2,5.2,12.5c3.4,3.4,7.8,5.2,12.5,5.2c4.7,0,9.2-1.8,12.5-5.2C48.2,41.5,50,37,50,32.3C50,27.5,48.2,23.1,44.8,19.7z
		 M47,31.5h-5.9c-0.1-3.7-0.8-7.2-2-10h3.2c0.1,0.1,0.2,0.2,0.3,0.3C45.3,24.4,46.8,27.9,47,31.5z M38.5,20c-0.3-0.6-0.6-1.1-1-1.6
		c1.1,0.4,2.1,0.9,3.1,1.6H38.5z M36.8,20H33v-2.5c0.6,0,1.2,0.1,1.8,0.2C35.5,18.3,36.2,19,36.8,20z M31.5,17.5V20h-3.8
		c0.6-1,1.3-1.8,2-2.3C30.4,17.6,30.9,17.6,31.5,17.5z M26.1,20H24c1-0.7,2-1.2,3.1-1.6C26.7,18.9,26.4,19.5,26.1,20z M31.5,21.5v10
		h-6.6c0.1-3.8,0.8-7.3,2.1-10H31.5z M31.5,33v10H27c-1.3-2.7-2-6.3-2.1-10H31.5z M26.1,44.5c0.3,0.6,0.6,1.1,1,1.6
		C26,45.7,25,45.2,24,44.5H26.1z M27.8,44.5h3.8V47c-0.6,0-1.2-0.1-1.8-0.2C29.1,46.3,28.4,45.5,27.8,44.5z M33,47v-2.5h3.8
		c-0.6,1-1.3,1.8-2,2.3C34.2,46.9,33.6,47,33,47z M38.5,44.5h2.1c-1,0.7-2,1.2-3.1,1.6C37.8,45.6,38.2,45.1,38.5,44.5z M33,43V33
		h6.6c-0.1,3.8-0.8,7.3-2.1,10H33z M33,31.5v-10h4.5c1.3,2.8,2,6.3,2.1,10H33z M21.8,21.8c0.1-0.1,0.2-0.2,0.3-0.3h3.2
		c-1.2,2.8-1.9,6.3-2,10h-5.9C17.7,27.9,19.2,24.4,21.8,21.8z M17.5,33h5.9c0.1,3.7,0.8,7.2,2,10h-3.2c-0.1-0.1-0.2-0.2-0.3-0.3
		C19.2,40.1,17.7,36.7,17.5,33z M42.7,42.7c-0.1,0.1-0.2,0.2-0.3,0.3h-3.2c1.2-2.8,1.9-6.3,2-10H47C46.8,36.7,45.3,40.1,42.7,42.7z"
		/>
</g>
</svg>
