<?xml version="1.0" encoding="utf-8"?>
<!-- Generator: Adobe Illustrator 21.1.0, SVG Export Plug-In . SVG Version: 6.00 Build 0)  -->
<svg version="1.1" id="Layer_1" xmlns="http://www.w3.org/2000/svg" xmlns:xlink="http://www.w3.org/1999/xlink" x="0px" y="0px"
	 viewBox="0 0 5000 5000" style="enable-background:new 0 0 5000 5000;" xml:space="preserve">
<style type="text/css">
	.st0{fill:none;stroke:#000000;stroke-miterlimit:10;}
	.st1{fill:#FFFFFF;}
</style>
<path class="st0" d="M3726.9,2675.1"/>
<path class="st1" d="M2500.5,4130.4c-239,0-471-46.8-689.3-139.2c-104.9-44.4-206.2-99.3-300.8-163.3
	c-93.8-63.3-181.9-136.1-262.1-216.2c-80.1-80.1-152.9-168.3-216.2-262.1c-64-94.7-118.9-195.9-163.3-300.8
	c-92.4-218.3-139.2-450.3-139.2-689.3c0-239,46.8-471,139.2-689.3c44.4-104.9,99.3-206.2,163.3-300.8
	c63.3-93.8,136.1-181.9,216.2-262.1s168.3-152.9,262.1-216.2c94.7-64,195.9-118.9,300.8-163.3c218.3-92.4,450.3-139.2,689.3-139.2
	c239.1,0,471,46.8,689.3,139.2c104.9,44.4,206.2,99.3,300.8,163.3c93.8,63.3,181.9,136.1,262.1,216.2
	c80.1,80.1,152.9,168.3,216.2,262.1c64,94.7,118.9,195.9,163.3,300.8c92.4,218.3,139.2,450.3,139.2,689.3
	c0,239.1-46.8,471-139.2,689.3c-44.4,104.9-99.3,206.2-163.3,300.8c-63.3,93.8-136.1,181.9-216.2,262.1
	c-80.1,80.1-168.3,152.9-262.1,216.2c-94.7,64-195.9,118.9-300.8,163.3C2971.5,4083.5,2739.6,4130.4,2500.5,4130.4z M2500.5,668.6
	c-932.4,0-1690.9,758.5-1690.9,1690.9s758.5,1690.9,1690.9,1690.9s1690.9-758.5,1690.9-1690.9S3432.9,668.6,2500.5,668.6z"/>
<g>
	<path class="st1" d="M2496.7,1083.6c0.6,0,1.3,0,1.9,0c0.6,0,1.3,0,1.9,0H2496.7z"/>
	<path class="st1" d="M3051.6,3537.9l-23.4-201.5c0,0,0-18.7-28.1-28.1l-14.1-314c0,0,112.5-135.9,150-463.9c0,0,39,25.8,56.6-83.2
		c17.6-108.9,84.3-319.8-10.5-295.2c0,0,59.7-478-28.1-671.3c-87.7-192.9-332.9-396.3-655.3-397.1
		c-322.4,0.8-567.6,204.2-655.3,397.1c-87.9,193.3-28.1,671.3-28.1,671.3c-94.9-24.6-28.1,186.3-10.5,295.2
		c17.6,108.9,56.6,83.2,56.6,83.2c37.5,328,150,463.9,150,463.9l-14.1,314c-28.1,9.4-28.1,28.1-28.1,28.1l-23.4,201.5
		c0,0-228.1,99.1-481.9,209.1c288.7,215.6,646.9,343.3,1034.9,343.3s746.2-127.7,1034.9-343.3
		C3279.7,3637,3051.6,3537.9,3051.6,3537.9z"/>
</g>
<path class="st0" d="M9154.5,2417.9"/>
</svg>
