<?xml version="1.0" standalone="no"?>
<!DOCTYPE svg PUBLIC "-//W3C//DTD SVG 20010904//EN"
 "http://www.w3.org/TR/2001/REC-SVG-20010904/DTD/svg10.dtd">
<svg version="1.0" xmlns="http://www.w3.org/2000/svg"
 width="940.000000pt" height="940.000000pt" viewBox="0 0 940.000000 940.000000"
 preserveAspectRatio="xMidYMid meet">
<metadata>
Created by potrace 1.11, written by Peter Selinger 2001-2013
</metadata>
<g transform="translate(0.000000,940.000000) scale(0.100000,-0.100000)"
fill="#000000" stroke="none">
<path d="M4529 7036 c-2 -2 -29 -6 -59 -9 -81 -9 -142 -16 -170 -22 -14 -3
-38 -8 -55 -11 -44 -8 -60 -12 -60 -14 0 -1 -11 -3 -25 -5 -14 -2 -50 -11 -80
-20 -91 -28 -204 -66 -225 -75 -125 -54 -212 -96 -292 -141 -77 -44 -167 -102
-218 -141 -27 -21 -55 -41 -60 -45 -154 -116 -356 -332 -486 -523 -140 -204
-252 -453 -320 -710 -11 -41 -22 -86 -24 -100 -3 -14 -7 -35 -9 -47 -3 -11 -8
-43 -12 -70 -3 -26 -8 -57 -11 -68 -2 -11 -6 -49 -9 -85 l-5 -65 1063 2 c585
1 1066 2 1070 3 9 0 8 2139 -1 2145 -5 2 -10 3 -12 1z"/>
<path d="M4901 7031 c-5 -4 -8 -429 -7 -1073 l1 -1068 35 0 c19 -1 504 -2
1078 -3 707 -2 1042 1 1043 8 1 5 1 12 1 15 -7 94 -12 142 -15 148 -3 4 -8 32
-11 62 -4 30 -12 73 -17 95 -6 22 -13 49 -14 60 -12 81 -74 259 -143 415 -58
131 -213 394 -253 430 -3 3 -12 14 -20 26 -73 107 -260 293 -430 428 -134 105
-479 294 -573 313 -11 2 -24 8 -31 13 -6 5 -22 11 -35 13 -14 3 -38 10 -55 17
-16 6 -73 22 -125 35 -142 36 -172 42 -314 59 -58 7 -110 10 -115 7z"/>
<path d="M2413 4537 c-7 -11 13 -189 30 -272 2 -11 7 -36 11 -55 11 -63 14
-74 31 -135 91 -326 241 -618 448 -869 69 -85 184 -203 257 -266 14 -12 36
-31 50 -43 14 -12 41 -33 60 -47 19 -13 37 -27 40 -31 9 -11 191 -129 199
-129 5 0 14 -7 21 -15 7 -8 16 -13 20 -10 5 3 11 2 14 -3 11 -18 210 -109 346
-157 63 -23 158 -52 196 -60 11 -2 49 -11 85 -19 36 -9 86 -18 110 -20 24 -3
44 -6 44 -6 0 -3 43 -8 112 -13 l62 -5 -1 1081 0 1082 -1065 0 c-586 0 -1067
-4 -1070 -8z m1392 -1267 c3 -6 -1 -7 -9 -4 -18 7 -21 14 -7 14 6 0 13 -4 16
-10z m125 -86 c0 -2 -9 0 -20 6 -11 6 -20 13 -20 16 0 2 9 0 20 -6 11 -6 20
-13 20 -16z m85 -44 c3 -6 -1 -7 -9 -4 -18 7 -21 14 -7 14 6 0 13 -4 16 -10z
m85 -46 c0 -2 -9 0 -20 6 -11 6 -20 13 -20 16 0 2 9 0 20 -6 11 -6 20 -13 20
-16z m70 -30 c0 -2 -9 0 -20 6 -11 6 -20 13 -20 16 0 2 9 0 20 -6 11 -6 20
-13 20 -16z m40 -4 c8 -5 11 -10 5 -10 -5 0 -17 5 -25 10 -8 5 -10 10 -5 10 6
0 17 -5 25 -10z m55 -20 c3 -5 1 -10 -4 -10 -6 0 -11 5 -11 10 0 6 2 10 4 10
3 0 8 -4 11 -10z m62 -16 c-3 -3 -12 -4 -19 -1 -8 3 -5 6 6 6 11 1 17 -2 13
-5z m46 -11 c-7 -2 -19 -2 -25 0 -7 3 -2 5 12 5 14 0 19 -2 13 -5z m84 -19
c-3 -3 -12 -4 -19 -1 -8 3 -5 6 6 6 11 1 17 -2 13 -5z m54 -12 c-13 -2 -27 0
-32 5 -6 6 3 7 23 4 28 -4 29 -6 9 -9z"/>
<path d="M6379 4522 c-1 -20 -3 -22 -6 -7 -4 21 -7 21 -741 21 l-737 0 0
-1076 c0 -1067 0 -1075 20 -1074 47 2 144 14 195 23 30 6 69 13 87 16 66 11
267 66 280 77 7 6 13 8 13 4 0 -3 15 0 34 8 19 8 37 12 40 8 3 -3 6 -1 6 5 0
6 10 13 23 16 40 10 97 33 109 45 7 7 17 12 24 12 14 0 117 54 209 109 238
142 470 347 636 566 38 50 73 95 77 100 20 25 127 204 144 240 10 22 23 47 28
55 14 21 77 165 86 195 2 6 16 48 32 95 47 135 67 211 87 320 15 81 28 184 29
230 l1 35 -337 2 -338 2 -1 -27z m-12 -54 c-3 -8 -6 -5 -6 6 -1 11 2 17 5 13
3 -3 4 -12 1 -19z m3 -68 c0 -5 -5 -10 -11 -10 -5 0 -7 5 -4 10 3 6 8 10 11
10 2 0 4 -4 4 -10z m-20 -70 c-6 -11 -13 -20 -16 -20 -2 0 0 9 6 20 6 11 13
20 16 20 2 0 0 -9 -6 -20z m-80 -304 c0 -3 -4 -8 -10 -11 -5 -3 -10 -1 -10 4
0 6 5 11 10 11 6 0 10 -2 10 -4z m-137 -271 c-3 -9 -8 -14 -10 -11 -3 3 -2 9
2 15 9 16 15 13 8 -4z m-95 -145 c-7 -10 -14 -17 -17 -15 -4 4 18 35 25 35 2
0 -1 -9 -8 -20z m-77 -93 c-10 -9 -11 -8 -5 6 3 10 9 15 12 12 3 -3 0 -11 -7
-18z m-60 -70 c-10 -9 -11 -8 -5 6 3 10 9 15 12 12 3 -3 0 -11 -7 -18z"/>
</g>
</svg>
