<?xml version="1.0" encoding="utf-8"?>
<!-- Generator: Adobe Illustrator 22.1.0, SVG Export Plug-In . SVG Version: 6.00 Build 0)  -->
<svg version="1.1" id="Layer_1" xmlns="http://www.w3.org/2000/svg" xmlns:xlink="http://www.w3.org/1999/xlink" x="0px" y="0px"
	 viewBox="0 0 235 182" style="enable-background:new 0 0 235 182;" xml:space="preserve">
<style type="text/css">
	.st0{fill:#EB2329;}
	.st1{fill:#FFFFFF;}
</style>
<path id="path21" class="st0" d="M122.4,47.3v39h36.9C157.3,65.7,142.4,49.5,122.4,47.3"/>
<path id="path23" class="st0" d="M122.4,134.1c20.8-2,35.3-18.6,36.9-39h-36.9V134.1"/>
<path id="path25" class="st0" d="M113.7,47.3c-20.7,2.1-35,18.7-36.5,39h36.5V47.3"/>
<path id="path27" class="st0" d="M77.2,94.9c1.8,20.6,16.6,36.8,36.5,39v-39H77.2"/>
<path id="path29" class="st1" d="M122.4,134.1v14.8c30-2.1,52-25.7,54.1-54.1h-17c-1.6,20.8-16.2,37.4-36.9,39.1"/>
<path id="path31" class="st1" d="M113.7,47.3V32.6c-29.8,2.2-51.6,25.5-53.5,53.8h17c1.6-20.3,15.8-36.9,36.5-39"/>
<path id="path33" class="st1" d="M159.4,86.4h17c-2-28.5-24-51.8-54.1-53.8v14.7c20,2.2,35.1,18.6,36.9,39"/>
<path id="path35" class="st1" d="M77.2,94.9h-17c1.8,28.5,23.6,52,53.5,54.1v-14.9c-19.9-2.2-34.7-18.6-36.5-39"/>
</svg>
