<?xml version="1.0" encoding="utf-8"?>
<!-- Generator: Adobe Illustrator 21.1.0, SVG Export Plug-In . SVG Version: 6.00 Build 0)  -->
<svg version="1.1" id="Layer_1" xmlns="http://www.w3.org/2000/svg" xmlns:xlink="http://www.w3.org/1999/xlink" x="0px" y="0px"
	 viewBox="0 0 291.8 291.8" style="enable-background:new 0 0 291.8 291.8;" xml:space="preserve">
<style type="text/css">
	.st0{fill:#EB2329;}
	.st1{fill:#A0A0A0;}
</style>
<path id="path21" class="st0" d="M156.1,36.9v97.9h92.6C243.6,83,206.2,42.4,156.1,36.9"/>
<path id="path23" class="st0" d="M156.1,254.7c52.2-5,88.6-46.7,92.6-97.9h-92.6V254.7"/>
<path id="path25" class="st0" d="M134.2,36.9c-51.9,5.3-87.8,46.9-91.6,97.9h91.6V36.9"/>
<path id="path27" class="st0" d="M42.7,156.3c4.5,51.7,41.6,92.3,91.6,97.9v-97.9L42.7,156.3"/>
<path id="path29" class="st1" d="M156.1,254.7v37.1c75.3-5.3,130.5-64.5,135.7-135.7h-42.7c-4,52.2-40.6,93.8-92.6,98.1"/>
<path id="path31" class="st1" d="M134.2,36.9V0C59.5,5.5,4.8,64,0,135h42.7c4-50.9,39.6-92.6,91.6-97.9"/>
<path id="path33" class="st1" d="M248.9,135h42.7c-5-71.5-60.2-130-135.7-135v36.9c50.2,5.5,88.1,46.7,92.6,97.9"/>
<path id="path35" class="st1" d="M42.7,156.3H0c4.5,71.5,59.2,130.5,134.2,135.7v-37.4c-49.9-5.5-87.1-46.7-91.6-97.9"/>
</svg>
