<svg  xmlns="http://www.w3.org/2000/svg" xmlns:xlink="http://www.w3.org/1999/xlink" version="1.1" width="600" height="182" viewBox="0 208.5 600 181.953" id="Layer_1" x="0px" y="0px">
  <metadata id="metadata64">

  </metadata>
  <defs id="defs62"/>
  <g id="logoName">
    <path d="m 104.3 240.6 v 17.8 h 0.3 c 3.4 -6.8 7.5 -11.9 12.4 -15.2 4.9 -3.3 11.1 -4.8 18.6 -4.5 v 14.6 c -5.6 0 -10.2 0.8 -14.2 2.3 -3.9 1.5 -7 3.7 -9.4 6.7 -2.4 2.9 -4.1 6.5 -5.2 10.7 -1.1 4.2 -1.6 9 -1.6 14.4 v 37.4 H 91.3 v -84.2 h 13" id="path4" style="fill:#a7a9ac"/>
    <path d="m 198.1 319.4 c -6.4 4.8 -14.2 7.1 -23.8 7.1 -6.7 0 -12.6 -1.1 -17.5 -3.3 -5 -2.2 -9.1 -5.2 -12.5 -9.1 -3.4 -3.9 -5.9 -8.6 -7.6 -14 -1.7 -5.4 -2.6 -11.3 -2.8 -17.8 0 -6.4 1 -12.2 2.9 -17.6 1.9 -5.3 4.7 -10 8.3 -13.8 3.5 -3.9 7.7 -6.9 12.6 -9.1 4.9 -2.2 10.1 -3.3 15.9 -3.3 7.5 0 13.7 1.6 18.6 4.7 5 3.1 8.8 7 11.9 11.8 2.9 4.8 5.1 10 6.2 15.7 1.1 5.7 1.6 11 1.4 16.1 h -63.2 c -0.1 3.7 0.3 7.1 1.4 10.5 1 3.3 2.5 6.2 4.8 8.8 2.3 2.6 5 4.5 8.3 6.1 3.4 1.5 7.4 2.3 11.9 2.3 5.9 0 10.7 -1.4 14.4 -4.1 3.7 -2.7 6.2 -6.8 7.4 -12.4 h 13.7 c -1.9 9.3 -6 16.4 -12.2 21.2 m -3.4 -54.1 c -1.2 -2.9 -2.9 -5.4 -5.1 -7.6 -2.2 -2.2 -4.7 -3.7 -7.5 -5.1 -2.8 -1.2 -6 -1.9 -9.5 -1.9 -3.6 0 -6.8 0.7 -9.6 1.9 -2.8 1.2 -5.3 2.9 -7.4 5.1 -2 2.2 -3.7 4.7 -4.9 7.6 -1.2 2.8 -1.9 5.9 -2.2 9.2 H 196.9 c -0.1 -3.2 -0.9 -6.2 -2.2 -9.2 z" id="path6" style="fill:#a7a9ac"/>
    <path d="m 271.9 255.2 c -3.5 -2.9 -8.2 -4.4 -14.1 -4.4 -5 0 -9.2 0.9 -12.6 2.7 -3.4 1.8 -6 4.3 -8.1 7.4 -2 3.1 -3.4 6.6 -4.3 10.5 -0.9 4 -1.2 8.1 -1.2 12.2 0 3.9 0.5 7.7 1.4 11.5 0.9 3.7 2.4 7 4.3 9.9 1.9 2.8 4.5 5.2 7.6 6.9 3.2 1.7 6.9 2.6 11.2 2.6 6.8 0 12.1 -1.8 16 -5.3 3.9 -3.6 6.2 -8.6 7 -15.2 h 14.2 c -1.5 10.4 -5.4 18.5 -11.7 24.2 -6.2 5.7 -14.7 8.5 -25.5 8.5 -6.4 0 -12.1 -1 -17 -3.1 -5 -2 -9.1 -5 -12.4 -8.8 -3.3 -3.7 -5.8 -8.3 -7.5 -13.6 -1.7 -5.2 -2.5 -11 -2.5 -17.4 0 -6.4 0.8 -12.1 2.5 -17.7 1.6 -5.4 4.1 -10.2 7.4 -14.3 3.3 -4.1 7.5 -7.3 12.5 -9.6 5 -2.4 10.8 -3.5 17.5 -3.5 4.8 0 9.3 0.6 13.4 1.7 4.2 1.1 7.8 2.9 11.1 5.3 3.2 2.4 5.8 5.4 7.9 9.1 2 3.6 3.4 7.9 3.9 12.9 h -14.3 c -0.9 -5.4 -3.2 -9.5 -6.7 -12.5" id="path8" style="fill:#a7a9ac"/>
    <path d="m 305.4 208.5 h 13.8 v 16.9 h -13.8 v -16.9 z m 0 32.1 h 13.8 v 84.2 h -13.8 v -84.2 z" id="path10" style="fill:#a7a9ac"/>
    <path d="m 343.9 305.9 c 1.2 2.2 3.1 3.9 5.1 5 2.2 1.2 4.5 2.2 7.1 2.7 2.6 0.6 5.4 0.8 8.3 0.8 2.2 0 4.4 -0.1 6.8 -0.5 2.4 -0.3 4.5 -0.9 6.6 -1.8 2 -0.9 3.6 -2.2 5 -3.9 1.4 -1.7 1.9 -3.9 1.9 -6.5 0 -3.6 -1.4 -6.4 -4.1 -8.2 -2.7 -1.8 -6.1 -3.3 -10.2 -4.5 -4.1 -1.1 -8.5 -2.2 -13.3 -3.1 -4.8 -0.9 -9.2 -2.3 -13.3 -3.9 -4.1 -1.7 -7.5 -4.1 -10.2 -7 -2.7 -3.1 -4.1 -7.3 -4.1 -12.7 0 -4.2 0.9 -7.8 2.8 -10.9 1.9 -3.1 4.3 -5.6 7.4 -7.4 2.9 -1.9 6.4 -3.3 10.1 -4.2 3.7 -0.9 7.5 -1.4 11.1 -1.4 4.8 0 9.2 0.5 13.2 1.2 4 0.8 7.6 2.3 10.7 4.2 3.1 2 5.6 4.8 7.4 8.2 1.8 3.4 2.9 7.7 3.3 12.8 h -13.8 c -0.2 -2.7 -0.9 -5 -2.2 -6.8 -1.2 -1.8 -2.7 -3.2 -4.5 -4.3 -1.8 -1.1 -3.9 -1.8 -6.1 -2.4 -2.3 -0.5 -4.5 -0.7 -6.8 -0.7 -2 0 -4.2 0.1 -6.2 0.5 -2 0.3 -4.1 0.9 -5.8 1.7 -1.7 0.8 -3.2 1.9 -4.2 3.3 -1.1 1.4 -1.6 3.2 -1.6 5.3 0 2.4 0.8 4.4 2.5 5.9 1.7 1.6 3.9 2.8 6.5 3.9 2.6 1 5.6 1.9 8.8 2.6 3.3 0.7 6.5 1.5 9.8 2.2 3.5 0.8 6.9 1.7 10.2 2.7 3.3 1.1 6.2 2.5 8.8 4.3 2.5 1.8 4.7 4.1 6.2 6.8 1.6 2.7 2.4 6.1 2.4 10.1 0 5.1 -1 9.3 -3.2 12.7 -2.2 3.4 -4.9 6.1 -8.3 8.2 -3.4 2 -7.3 3.5 -11.6 4.3 -4.3 0.8 -8.5 1.2 -12.8 1.2 -4.7 0 -9.1 -0.5 -13.4 -1.5 -4.2 -1 -7.9 -2.6 -11.2 -4.8 -3.3 -2.3 -5.9 -5.1 -7.8 -8.8 -1.9 -3.6 -3.1 -8.1 -3.3 -13.3 h 13.8 c 0.1 3.1 0.9 5.7 2.2 7.7" id="path12" style="fill:#a7a9ac"/>
    <path d="m 407 208.5 h 13.8 v 16.9 h -13.8 v -16.9 z m 0 32.1 h 13.8 v 84.2 h -13.8 v -84.2 z" id="path14" style="fill:#a7a9ac"/>
    <path d="m 539.8 240.6 v 13.4 h 0.3 c 5.8 -10.2 14.9 -15.3 27.3 -15.3 5.6 0 10.1 0.8 13.8 2.3 3.7 1.5 6.7 3.6 9 6.4 2.3 2.7 3.9 5.9 4.8 9.6 0.9 3.7 1.4 7.9 1.4 12.5 v 55.4 h -13.8 v -56.9 c 0 -5.2 -1.5 -9.3 -4.5 -12.4 -3.1 -3.1 -7.3 -4.5 -12.6 -4.5 -4.2 0 -7.9 0.7 -11 1.9 -3.1 1.2 -5.7 3.2 -7.7 5.6 -2 2.4 -3.6 5.2 -4.6 8.4 -1 3.2 -1.6 6.7 -1.6 10.5 v 47.5 H 526.6 V 240.6 h 13.2" id="path16" style="fill:#a7a9ac"/>
    <path d="m 14.4 237.4 v 11.9 h 0.3 c 2.4 -4.9 6.1 -8.4 11.2 -10.7 5.1 -2.2 10.7 -3.3 16.8 -3.3 6.8 0 12.7 1.2 17.7 3.7 5 2.5 9.2 5.9 12.6 10.1 3.3 4.2 5.9 9.2 7.6 14.7 1.7 5.6 2.5 11.5 2.5 17.7 0 6.2 -0.8 12.1 -2.5 17.7 -1.7 5.6 -4.1 10.4 -7.5 14.5 -3.3 4.1 -7.5 7.4 -12.6 9.8 -5 2.4 -10.9 3.5 -17.6 3.5 -2.2 0 -4.5 -0.2 -7.3 -0.7 -2.6 -0.5 -5.3 -1.1 -7.9 -2.2 -2.6 -1 -5.1 -2.4 -7.4 -4.2 -2.3 -1.7 -4.3 -4 -5.9 -6.6 h -0.3 V 358.7 H 0 V 237.4 H 14.4 M 66.4 268.5 c -1 -3.9 -2.7 -7.4 -4.9 -10.4 -2.2 -3.1 -5 -5.4 -8.5 -7.3 -3.4 -1.8 -7.5 -2.7 -12.1 -2.7 -4.9 0 -9 1 -12.4 2.8 -3.4 1.9 -6.1 4.4 -8.3 7.6 -2.2 3.1 -3.7 6.7 -4.7 10.7 -0.9 4 -1.5 7.9 -1.5 12 0 4.3 0.5 8.5 1.5 12.5 1 4 2.6 7.6 4.9 10.7 2.2 3.1 5.1 5.6 8.6 7.4 3.5 1.8 7.7 2.8 12.7 2.8 5 0 9.2 -0.9 12.5 -2.8 3.3 -1.9 6 -4.4 8.1 -7.6 2 -3.2 3.5 -6.8 4.4 -10.9 0.9 -4.1 1.4 -8.3 1.4 -12.6 -0.1 -4.2 -0.7 -8.2 -1.7 -12.1 z" id="path18" style="fill:#a7a9ac"/>
    <g id="LogoIcon">
      <path d="m 476.7 249.3 v 29.8 h 28.2 c -1.5 -15.7 -12.9 -28.1 -28.2 -29.8" id="path21" style="fill:#EB2329"/>
      <path d="m 476.7 315.6 c 15.9 -1.5 27 -14.2 28.2 -29.8 h -28.2 v 29.8" id="path23" style="fill:#EB2329"/>
      <path d="m 470.1 249.3 c -15.8 1.6 -26.7 14.3 -27.9 29.8 h 27.9 v -29.8" id="path25" style="fill:#EB2329"/>
      <path d="m 442.2 285.7 c 1.4 15.7 12.7 28.1 27.9 29.8 V 285.7 H 442.2" id="path27" style="fill:#EB2329"/>
      <path d="m 476.7 315.6 v 11.3 c 22.9 -1.6 39.7 -19.6 41.3 -41.3 h -13 c -1.2 15.9 -12.4 28.6 -28.2 29.9" id="path29" style="fill:#a7a9ac"/>
      <path d="m 470.1 249.3 v -11.2 c -22.8 1.7 -39.4 19.5 -40.9 41.1 h 13 c 1.2 -15.5 12.1 -28.2 27.9 -29.8" id="path31" style="fill:#a7a9ac"/>
      <path d="m 505 279.2 h 13 c -1.5 -21.8 -18.3 -39.6 -41.3 -41.1 v 11.2 c 15.3 1.7 26.8 14.2 28.2 29.8" id="path33" style="fill:#a7a9ac"/>
      <path d="m 442.2 285.7 h -13 c 1.4 21.8 18 39.7 40.9 41.3 V 315.6 c -15.2 -1.7 -26.5 -14.2 -27.9 -29.8" id="path35" style="fill:#a7a9ac"/>
    </g>
  </g>
  <g id="logoTagLine">
    <path d="m 348.8 378.5 v -5.6 h -0.1 c -0.3 0.9 -0.9 1.8 -1.7 2.6 -0.8 0.8 -1.6 1.5 -2.5 2 -0.9 0.6 -1.9 1 -3.1 1.2 -1.1 0.3 -2.2 0.5 -3.2 0.5 -2.3 0 -4.2 -0.5 -5.9 -1.2 -1.7 -0.8 -3.1 -1.9 -4.1 -3.4 -1.1 -1.5 -1.9 -3.1 -2.5 -5 -0.6 -1.9 -0.8 -3.9 -0.8 -6 0 -2 0.2 -4.1 0.8 -6 0.6 -1.9 1.4 -3.5 2.5 -5 1.1 -1.5 2.5 -2.6 4.1 -3.4 1.7 -0.8 3.6 -1.2 5.9 -1.2 1.1 0 2.2 0.1 3.2 0.5 1 0.2 2 0.7 2.9 1.2 0.9 0.6 1.7 1.2 2.4 2 0.7 0.8 1.2 1.7 1.6 2.8 h 0.1 v -16.9 h 3.6 v 40.7 h -3.3 m -19.7 -10.1 c 0.3 1.5 0.9 2.8 1.7 4 0.8 1.1 1.8 2.2 2.9 2.8 1.2 0.8 2.7 1.1 4.4 1.1 1.9 0 3.5 -0.3 4.8 -1.1 1.4 -0.8 2.4 -1.7 3.2 -2.8 0.8 -1.1 1.4 -2.5 1.8 -4 0.3 -1.5 0.6 -3.1 0.6 -4.5 0 -1.5 -0.2 -3.1 -0.6 -4.5 -0.3 -1.5 -0.9 -2.8 -1.8 -4 -0.8 -1.1 -1.9 -2.2 -3.2 -2.8 -1.4 -0.8 -2.9 -1.1 -4.8 -1.1 -1.7 0 -3.2 0.3 -4.4 1.1 -1.2 0.8 -2.3 1.7 -2.9 2.8 -0.8 1.1 -1.4 2.5 -1.7 4 -0.3 1.5 -0.6 3.1 -0.6 4.5 0 1.6 0.2 3.1 0.6 4.5 z" id="path38" style="fill:#a7a9ac"/>
    <path d="m 359 337.8 h 3.6 v 5.8 h -3.6 v -5.8 z m 0 11.3 h 3.6 v 29.4 h -3.6 v -29.4 z" id="path40" style="fill:#a7a9ac"/>
    <path d="m 370.2 353.7 c 0.6 -1.2 1.5 -2.3 2.5 -3.1 1 -0.8 2.3 -1.4 3.6 -1.8 1.4 -0.3 2.9 -0.6 4.7 -0.6 1.2 0 2.6 0.1 3.9 0.3 1.2 0.2 2.5 0.7 3.5 1.4 1 0.7 1.8 1.6 2.5 2.8 0.7 1.2 1 2.8 1 4.8 v 15.7 c 0 1.5 0.7 2.2 2.2 2.2 0.5 0 0.8 -0.1 1.1 -0.2 v 3.1 c -0.5 0.1 -0.8 0.1 -1.1 0.2 -0.3 0 -0.7 0.1 -1.2 0.1 -0.9 0 -1.6 -0.1 -2.2 -0.3 -0.6 -0.2 -1 -0.6 -1.2 -1 -0.3 -0.5 -0.6 -1 -0.6 -1.6 -0.1 -0.7 -0.1 -1.4 -0.1 -2 h -0.1 c -0.7 0.9 -1.2 1.8 -1.9 2.5 -0.7 0.8 -1.4 1.4 -2.3 1.8 -0.8 0.5 -1.7 0.9 -2.8 1.1 -1 0.2 -2.3 0.5 -3.7 0.5 -1.4 0 -2.6 -0.1 -3.9 -0.5 -1.2 -0.3 -2.3 -0.8 -3.2 -1.6 -0.9 -0.7 -1.6 -1.6 -2.2 -2.7 -0.6 -1.1 -0.8 -2.4 -0.8 -3.9 0 -2 0.5 -3.6 1.4 -4.8 0.9 -1.1 2.2 -2 3.6 -2.6 1.5 -0.6 3.2 -1 5.1 -1.2 1.9 -0.2 3.7 -0.5 5.8 -0.7 0.8 -0.1 1.5 -0.2 2 -0.3 0.6 -0.1 1 -0.3 1.5 -0.6 0.3 -0.3 0.7 -0.7 0.9 -1.1 0.2 -0.5 0.3 -1.1 0.3 -1.9 0 -1.2 -0.2 -2.3 -0.6 -2.9 -0.5 -0.8 -0.9 -1.4 -1.7 -1.8 -0.7 -0.5 -1.5 -0.8 -2.5 -0.9 -0.9 -0.1 -1.9 -0.2 -2.9 -0.2 -2.3 0 -4.2 0.6 -5.6 1.6 -1.5 1.1 -2.2 2.8 -2.3 5.2 h -3.6 c -0.1 -2 0.2 -3.5 0.9 -4.8 m 17.9 8.7 c -0.2 0.5 -0.7 0.7 -1.4 0.9 -0.7 0.2 -1.2 0.3 -1.7 0.5 -1.5 0.2 -3.1 0.5 -4.7 0.7 -1.6 0.2 -3.1 0.6 -4.4 0.9 -1.4 0.5 -2.4 1 -3.3 1.8 -0.9 0.8 -1.2 1.9 -1.2 3.3 0 0.9 0.2 1.7 0.6 2.4 0.3 0.7 0.8 1.4 1.5 1.8 0.6 0.6 1.4 0.9 2.2 1.1 0.8 0.2 1.6 0.5 2.5 0.5 1.4 0 2.7 -0.2 4 -0.7 1.2 -0.5 2.4 -1 3.3 -1.8 0.9 -0.8 1.7 -1.8 2.3 -2.9 0.6 -1.1 0.8 -2.4 0.8 -3.9 v -4.7 h -0.3 v 0.1 z" id="path42" style="fill:#a7a9ac"/>
    <path d="m 423.2 382 c -0.5 1.7 -1.2 3.2 -2.3 4.4 -1 1.2 -2.4 2.2 -4 2.8 -1.7 0.7 -3.6 1 -6.1 1 -1.5 0 -2.9 -0.1 -4.3 -0.6 -1.4 -0.3 -2.6 -0.9 -3.7 -1.6 -1.1 -0.7 -2 -1.7 -2.8 -2.7 -0.8 -1.1 -1.1 -2.5 -1.2 -4 h 3.6 c 0.2 1.1 0.6 2 1.1 2.7 0.6 0.8 1.2 1.4 2 1.8 0.8 0.5 1.6 0.8 2.6 1 0.9 0.2 1.9 0.3 2.9 0.3 3.3 0 5.8 -0.9 7.3 -2.8 1.5 -1.9 2.3 -4.7 2.3 -8.2 v -4 h -0.1 c -0.8 1.8 -2 3.3 -3.6 4.4 -1.6 1.1 -3.5 1.7 -5.7 1.7 -2.4 0 -4.4 -0.3 -6 -1.1 -1.7 -0.8 -3.1 -1.8 -4.1 -3.2 -1.1 -1.4 -1.9 -2.9 -2.4 -4.8 -0.5 -1.8 -0.8 -3.9 -0.8 -5.9 0 -2 0.3 -4 0.9 -5.8 0.6 -1.8 1.5 -3.4 2.6 -4.8 1.1 -1.4 2.5 -2.4 4.2 -3.2 1.7 -0.8 3.5 -1.1 5.7 -1.1 1.1 0 2.2 0.1 3.1 0.5 1 0.3 1.8 0.7 2.6 1.2 0.8 0.6 1.5 1.1 2.2 1.9 0.7 0.7 1.1 1.5 1.5 2.3 h 0.1 v -5.1 h 3.6 v 27 c -0.5 1.8 -0.7 3.7 -1.1 5.6 m -8.2 -7.9 c 1.1 -0.7 2.2 -1.6 2.9 -2.6 0.8 -1.1 1.4 -2.4 1.8 -3.7 0.5 -1.4 0.6 -2.8 0.6 -4.3 0 -1.5 -0.2 -2.8 -0.6 -4.3 -0.3 -1.5 -0.9 -2.7 -1.7 -4 -0.8 -1.1 -1.7 -2.2 -2.9 -2.8 -1.2 -0.7 -2.6 -1.1 -4.3 -1.1 -1.7 0 -3.2 0.3 -4.4 1 -1.2 0.7 -2.3 1.6 -3.1 2.7 -0.8 1.1 -1.4 2.5 -1.7 3.9 -0.3 1.5 -0.6 2.9 -0.6 4.4 0 1.5 0.2 2.9 0.6 4.3 0.3 1.4 1 2.6 1.8 3.7 0.8 1.1 1.8 1.9 3.1 2.6 1.2 0.7 2.6 1 4.3 1 1.6 0.2 3 -0.1 4.2 -0.8 z" id="path44" style="fill:#a7a9ac"/>
    <path d="m 434.3 349.1 v 5.1 h 0.1 c 0.7 -1.8 1.9 -3.2 3.6 -4.3 1.7 -1.1 3.6 -1.6 5.8 -1.6 2 0 3.7 0.2 5.2 0.8 1.4 0.6 2.5 1.2 3.3 2.3 0.8 1 1.5 2.2 1.8 3.5 0.3 1.4 0.6 2.9 0.6 4.8 v 18.9 h -3.6 v -18.4 c 0 -1.2 -0.1 -2.4 -0.3 -3.5 -0.2 -1.1 -0.7 -2 -1.2 -2.8 -0.6 -0.8 -1.4 -1.5 -2.3 -1.9 -1 -0.5 -2.2 -0.7 -3.6 -0.7 -1.5 0 -2.7 0.2 -3.9 0.8 -1.1 0.6 -2 1.2 -2.8 2.2 -0.8 0.9 -1.4 1.9 -1.8 3.2 -0.5 1.2 -0.7 2.6 -0.7 4 v 17.1 h -3.6 v -29.4 h 3.5" id="path46" style="fill:#a7a9ac"/>
    <path d="m 479.8 349.5 c 1.7 0.8 3.2 1.9 4.3 3.4 1.1 1.4 2 3.1 2.7 4.9 0.6 1.9 0.9 3.9 0.9 6 0 2.2 -0.3 4.1 -0.9 6 -0.6 1.9 -1.5 3.5 -2.7 4.9 -1.1 1.4 -2.6 2.5 -4.3 3.3 -1.7 0.8 -3.7 1.2 -6 1.2 -2.3 0 -4.2 -0.5 -6 -1.2 -1.7 -0.8 -3.2 -1.9 -4.3 -3.3 -1.1 -1.4 -2 -3.1 -2.7 -4.9 -0.6 -1.9 -0.9 -3.9 -0.9 -6 0 -2.2 0.3 -4.1 0.9 -6 0.6 -1.9 1.5 -3.5 2.7 -4.9 1.1 -1.4 2.6 -2.5 4.3 -3.4 1.7 -0.8 3.7 -1.2 6 -1.2 2.3 0 4.3 0.5 6 1.2 m -10.4 2.8 c -1.2 0.7 -2.4 1.7 -3.2 2.8 -0.9 1.1 -1.5 2.5 -1.9 4 -0.5 1.5 -0.7 3.1 -0.7 4.5 0 1.6 0.2 3.1 0.7 4.5 0.5 1.5 1.1 2.8 1.9 4 0.9 1.1 1.9 2.2 3.2 2.8 1.2 0.7 2.8 1.1 4.5 1.1 1.7 0 3.2 -0.3 4.5 -1.1 1.2 -0.7 2.4 -1.7 3.2 -2.8 0.9 -1.1 1.5 -2.5 1.9 -4 0.5 -1.5 0.7 -3.1 0.7 -4.5 0 -1.6 -0.2 -3.1 -0.7 -4.5 -0.5 -1.5 -1.1 -2.8 -1.9 -4 -0.9 -1.1 -1.9 -2.2 -3.2 -2.8 -1.2 -0.7 -2.8 -1.1 -4.5 -1.1 -1.8 0.1 -3.3 0.5 -4.5 1.1 z" id="path48" style="fill:#a7a9ac"/>
    <path d="m 510.1 354.8 c -0.5 -0.8 -1 -1.5 -1.7 -2 -0.7 -0.6 -1.5 -0.9 -2.4 -1.1 -0.9 -0.2 -1.9 -0.3 -2.9 -0.3 -0.8 0 -1.6 0.1 -2.4 0.2 -0.8 0.2 -1.6 0.5 -2.3 0.9 -0.7 0.5 -1.2 0.9 -1.7 1.6 -0.5 0.7 -0.7 1.5 -0.7 2.4 0 0.8 0.2 1.5 0.6 2 0.5 0.6 0.9 1 1.5 1.4 0.6 0.3 1.2 0.7 2 0.9 0.7 0.2 1.4 0.5 2 0.6 l 4.8 1.1 c 1 0.1 2 0.5 3.1 0.8 1 0.5 1.9 0.9 2.7 1.6 0.8 0.7 1.4 1.5 1.9 2.4 0.5 0.9 0.8 2 0.8 3.4 0 1.6 -0.3 2.9 -1.1 4.1 -0.7 1.1 -1.7 2 -2.7 2.7 -1.1 0.7 -2.4 1.2 -3.7 1.5 -1.4 0.3 -2.8 0.5 -4.2 0.5 -3.4 0 -6.2 -0.8 -8.4 -2.5 -2.2 -1.6 -3.4 -4.3 -3.6 -7.8 h 3.6 c 0.1 2.4 1 4.3 2.6 5.4 1.6 1.2 3.6 1.8 6 1.8 0.9 0 1.8 -0.1 2.7 -0.3 0.9 -0.2 1.8 -0.6 2.6 -1 0.8 -0.5 1.5 -1 1.9 -1.7 0.6 -0.7 0.8 -1.6 0.8 -2.6 0 -0.9 -0.2 -1.6 -0.6 -2.2 -0.3 -0.6 -0.8 -1.1 -1.5 -1.5 -0.6 -0.5 -1.2 -0.7 -2 -1 -0.8 -0.2 -1.6 -0.5 -2.4 -0.7 l -4.7 -1 c -1.1 -0.3 -2.3 -0.7 -3.3 -1 -1 -0.3 -1.8 -0.9 -2.6 -1.5 -0.8 -0.6 -1.4 -1.4 -1.7 -2.2 -0.5 -0.9 -0.7 -1.9 -0.7 -3.2 0 -1.5 0.3 -2.7 1 -3.9 0.7 -1 1.6 -1.9 2.6 -2.6 1 -0.7 2.3 -1.1 3.5 -1.5 1.4 -0.3 2.6 -0.5 3.9 -0.5 1.5 0 2.8 0.2 4.1 0.6 1.2 0.3 2.4 1 3.4 1.8 1 0.8 1.7 1.8 2.3 2.9 0.6 1.1 0.9 2.6 1 4.2 h -3.6 c -0 -0.9 -0.2 -1.9 -0.6 -2.7" id="path50" style="fill:#a7a9ac"/>
    <path d="m 532.2 349.1 v 3.1 h -5.9 v 19.8 c 0 1.1 0.1 2.2 0.5 2.7 0.3 0.7 1.1 1 2.4 1.1 1 0 2 -0.1 3.1 -0.2 v 3.1 c -0.6 0 -1 0 -1.6 0 -0.6 0 -1 0.1 -1.6 0.1 -2.4 0 -4.1 -0.5 -5 -1.4 -0.9 -0.9 -1.4 -2.6 -1.4 -5.2 v -20.1 h -5.1 v -3.1 h 5.1 v -8.8 h 3.6 v 8.8 h 5.9" id="path52" style="fill:#a7a9ac"/>
    <path d="m 537.5 337.8 h 3.6 v 5.8 h -3.6 v -5.8 z m 0 11.3 h 3.6 v 29.4 h -3.6 v -29.4 z" id="path54" style="fill:#a7a9ac"/>
    <path d="m 566 353.1 c -1.4 -1.2 -3.2 -1.9 -5.6 -1.9 -1.7 0 -3.2 0.3 -4.5 1.1 -1.2 0.7 -2.4 1.7 -3.2 2.8 -0.9 1.1 -1.5 2.5 -1.9 4 -0.5 1.5 -0.7 3.1 -0.7 4.5 0 1.6 0.2 3.1 0.7 4.5 0.5 1.5 1.1 2.8 1.9 4 0.9 1.1 1.9 2.2 3.2 2.8 1.2 0.7 2.8 1.1 4.5 1.1 1.1 0 2.2 -0.2 3.2 -0.7 1 -0.5 1.8 -1 2.6 -1.7 0.8 -0.8 1.4 -1.6 1.9 -2.6 0.5 -1 0.8 -2.2 0.9 -3.4 h 3.6 c -0.5 3.6 -1.8 6.4 -4 8.4 -2.2 2 -4.9 2.9 -8.2 2.9 -2.3 0 -4.2 -0.5 -6 -1.2 -1.7 -0.8 -3.2 -1.9 -4.3 -3.3 -1.1 -1.4 -2 -3.1 -2.7 -4.9 -0.6 -1.9 -0.9 -3.9 -0.9 -6 0 -2.2 0.3 -4.1 0.9 -6 0.6 -1.9 1.5 -3.5 2.7 -4.9 1.1 -1.4 2.6 -2.5 4.3 -3.4 1.7 -0.8 3.7 -1.2 6 -1.2 3.2 0 5.8 0.8 8.1 2.5 2.2 1.7 3.5 4.2 3.9 7.6 h -3.6 c -0.6 -2 -1.5 -3.9 -2.8 -5.1" id="path56" style="fill:#a7a9ac"/>
    <path d="m 594.4 354.8 c -0.5 -0.8 -1 -1.5 -1.7 -2 -0.7 -0.6 -1.5 -0.9 -2.4 -1.1 -0.9 -0.2 -1.9 -0.3 -2.9 -0.3 -0.8 0 -1.6 0.1 -2.4 0.2 -0.8 0.2 -1.6 0.5 -2.3 0.9 -0.7 0.5 -1.2 0.9 -1.7 1.6 -0.5 0.7 -0.7 1.5 -0.7 2.4 0 0.8 0.2 1.5 0.6 2 0.3 0.6 0.9 1 1.5 1.4 0.6 0.3 1.2 0.7 2 0.9 0.7 0.2 1.4 0.5 2 0.6 l 4.8 1.1 c 1 0.1 2 0.5 3.1 0.8 1 0.5 1.9 0.9 2.7 1.6 0.8 0.7 1.4 1.5 1.9 2.4 0.5 0.9 0.8 2 0.8 3.4 0 1.6 -0.3 2.9 -1.1 4.1 -0.7 1.1 -1.7 2 -2.7 2.7 -1.1 0.7 -2.4 1.2 -3.7 1.5 -1.4 0.3 -2.8 0.5 -4.2 0.5 -3.5 0 -6.2 -0.8 -8.4 -2.5 -2.2 -1.6 -3.4 -4.3 -3.6 -7.8 h 3.6 c 0.1 2.4 1 4.3 2.6 5.4 1.6 1.2 3.6 1.8 6 1.8 0.9 0 1.8 -0.1 2.7 -0.3 0.9 -0.2 1.8 -0.6 2.6 -1 0.8 -0.5 1.5 -1 1.9 -1.7 0.6 -0.7 0.8 -1.6 0.8 -2.6 0 -0.9 -0.2 -1.6 -0.6 -2.2 -0.3 -0.6 -0.8 -1.1 -1.5 -1.5 -0.6 -0.5 -1.2 -0.7 -2 -1 -0.8 -0.2 -1.6 -0.5 -2.4 -0.7 l -4.7 -1 c -1.1 -0.3 -2.3 -0.7 -3.3 -1 -1 -0.3 -1.8 -0.9 -2.6 -1.5 -0.8 -0.6 -1.4 -1.4 -1.7 -2.2 -0.5 -0.9 -0.7 -1.9 -0.7 -3.2 0 -1.5 0.3 -2.7 1 -3.9 0.7 -1 1.6 -1.9 2.6 -2.6 1 -0.7 2.3 -1.1 3.5 -1.5 1.4 -0.3 2.6 -0.5 3.9 -0.5 1.5 0 2.8 0.2 4.1 0.6 1.2 0.3 2.4 1 3.4 1.8 1 0.8 1.7 1.8 2.3 2.9 0.6 1.1 0.9 2.6 1 4.2 h -3.6 c 0.1 -0.9 -0.1 -1.9 -0.6 -2.7" id="path58" style="fill:#a7a9ac"/>
  </g>
</svg>
