<?xml version="1.0" encoding="utf-8"?>
<!-- Generator: Adobe Illustrator 22.1.0, SVG Export Plug-In . SVG Version: 6.00 Build 0)  -->
<svg version="1.1" id="Layer_1" xmlns="http://www.w3.org/2000/svg" xmlns:xlink="http://www.w3.org/1999/xlink" x="0px" y="0px"
	 viewBox="0 0 600 182" style="enable-background:new 0 0 600 182;" xml:space="preserve">
<style type="text/css">
	.st0{fill:#FFFFFF;}
	.st1{fill:#EB2329;}
</style>
<path id="path4" class="st0" d="M104.3,32.1v17.8h0.3c3.4-6.8,7.5-11.9,12.4-15.2s11.1-4.8,18.6-4.5v14.6c-5.6,0-10.2,0.8-14.2,2.3
	c-3.9,1.5-7,3.7-9.4,6.7c-2.4,2.9-4.1,6.5-5.2,10.7s-1.6,9-1.6,14.4v37.4H91.3V32.1L104.3,32.1"/>
<path id="path6" class="st0" d="M198.1,110.9c-6.4,4.8-14.2,7.1-23.8,7.1c-6.7,0-12.6-1.1-17.5-3.3c-5-2.2-9.1-5.2-12.5-9.1
	s-5.9-8.6-7.6-14c-1.7-5.4-2.6-11.3-2.8-17.8c0-6.4,1-12.2,2.9-17.6c1.9-5.3,4.7-10,8.3-13.8c3.5-3.9,7.7-6.9,12.6-9.1
	c4.9-2.2,10.1-3.3,15.9-3.3c7.5,0,13.7,1.6,18.6,4.7c5,3.1,8.8,7,11.9,11.8c2.9,4.8,5.1,10,6.2,15.7c1.1,5.7,1.6,11,1.4,16.1h-63.2
	c-0.1,3.7,0.3,7.1,1.4,10.5c1,3.3,2.5,6.2,4.8,8.8c2.3,2.6,5,4.5,8.3,6.1c3.4,1.5,7.4,2.3,11.9,2.3c5.9,0,10.7-1.4,14.4-4.1
	s6.2-6.8,7.4-12.4h13.7c-1.9,9.3-6,16.4-12.2,21.2 M194.8,56.6c-1.2-2.9-2.9-5.4-5.1-7.6c-2.2-2.2-4.7-3.7-7.5-5.1
	c-2.8-1.2-6-1.9-9.5-1.9c-3.6,0-6.8,0.7-9.6,1.9s-5.3,2.9-7.4,5.1c-2,2.2-3.7,4.7-4.9,7.6c-1.2,2.8-1.9,5.9-2.2,9.2h48.3
	C196.8,62.6,196,59.6,194.8,56.6L194.8,56.6z"/>
<path id="path8" class="st0" d="M271.9,46.7c-3.5-2.9-8.2-4.4-14.1-4.4c-5,0-9.2,0.9-12.6,2.7c-3.4,1.8-6,4.3-8.1,7.4
	c-2,3.1-3.4,6.6-4.3,10.5c-0.9,4-1.2,8.1-1.2,12.2c0,3.9,0.5,7.7,1.4,11.5c0.9,3.7,2.4,7,4.3,9.9c1.9,2.8,4.5,5.2,7.6,6.9
	c3.2,1.7,6.9,2.6,11.2,2.6c6.8,0,12.1-1.8,16-5.3c3.9-3.6,6.2-8.6,7-15.2h14.2c-1.5,10.4-5.4,18.5-11.7,24.2
	c-6.2,5.7-14.7,8.5-25.5,8.5c-6.4,0-12.1-1-17-3.1c-5-2-9.1-5-12.4-8.8c-3.3-3.7-5.8-8.3-7.5-13.6c-1.7-5.2-2.5-11-2.5-17.4
	s0.8-12.1,2.5-17.7c1.6-5.4,4.1-10.2,7.4-14.3c3.3-4.1,7.5-7.3,12.5-9.6c5-2.4,10.8-3.5,17.5-3.5c4.8,0,9.3,0.6,13.4,1.7
	c4.2,1.1,7.8,2.9,11.1,5.3c3.2,2.4,5.8,5.4,7.9,9.1c2,3.6,3.4,7.9,3.9,12.9h-14.3C277.7,53.8,275.4,49.7,271.9,46.7"/>
<path id="path10" class="st0" d="M305.4,0h13.8v16.9h-13.8V0z M305.4,32.1h13.8v84.2h-13.8V32.1L305.4,32.1z"/>
<path id="path12" class="st0" d="M343.9,97.4c1.2,2.2,3.1,3.9,5.1,5c2.2,1.2,4.5,2.2,7.1,2.7c2.6,0.6,5.4,0.8,8.3,0.8
	c2.2,0,4.4-0.1,6.8-0.5c2.4-0.3,4.5-0.9,6.6-1.8c2-0.9,3.6-2.2,5-3.9c1.4-1.7,1.9-3.9,1.9-6.5c0-3.6-1.4-6.4-4.1-8.2
	c-2.7-1.8-6.1-3.3-10.2-4.5c-4.1-1.1-8.5-2.2-13.3-3.1s-9.2-2.3-13.3-3.9c-4.1-1.7-7.5-4.1-10.2-7c-2.7-3.1-4.1-7.3-4.1-12.7
	c0-4.2,0.9-7.8,2.8-10.9c1.9-3.1,4.3-5.6,7.4-7.4c2.9-1.9,6.4-3.3,10.1-4.2s7.5-1.4,11.1-1.4c4.8,0,9.2,0.5,13.2,1.2
	c4,0.8,7.6,2.3,10.7,4.2c3.1,2,5.6,4.8,7.4,8.2s2.9,7.7,3.3,12.8h-13.8c-0.2-2.7-0.9-5-2.2-6.8c-1.2-1.8-2.7-3.2-4.5-4.3
	s-3.9-1.8-6.1-2.4c-2.3-0.5-4.5-0.7-6.8-0.7c-2,0-4.2,0.1-6.2,0.5c-2,0.3-4.1,0.9-5.8,1.7c-1.7,0.8-3.2,1.9-4.2,3.3
	c-1.1,1.4-1.6,3.2-1.6,5.3c0,2.4,0.8,4.4,2.5,5.9c1.7,1.6,3.9,2.8,6.5,3.9c2.6,1,5.6,1.9,8.8,2.6c3.3,0.7,6.5,1.5,9.8,2.2
	c3.5,0.8,6.9,1.7,10.2,2.7c3.3,1.1,6.2,2.5,8.8,4.3c2.5,1.8,4.7,4.1,6.2,6.8c1.6,2.7,2.4,6.1,2.4,10.1c0,5.1-1,9.3-3.2,12.7
	c-2.2,3.4-4.9,6.1-8.3,8.2c-3.4,2-7.3,3.5-11.6,4.3c-4.3,0.8-8.5,1.2-12.8,1.2c-4.7,0-9.1-0.5-13.4-1.5c-4.2-1-7.9-2.6-11.2-4.8
	c-3.3-2.3-5.9-5.1-7.8-8.8c-1.9-3.6-3.1-8.1-3.3-13.3h13.8c0.1,3.1,0.9,5.7,2.2,7.7"/>
<path id="path14" class="st0" d="M407,0h13.8v16.9H407V0z M407,32.1h13.8v84.2H407V32.1L407,32.1z"/>
<path id="path16" class="st0" d="M539.8,32.1v13.4h0.3c5.8-10.2,14.9-15.3,27.3-15.3c5.6,0,10.1,0.8,13.8,2.3s6.7,3.6,9,6.4
	c2.3,2.7,3.9,5.9,4.8,9.6c0.9,3.7,1.4,7.9,1.4,12.5v55.4h-13.8V59.5c0-5.2-1.5-9.3-4.5-12.4c-3.1-3.1-7.3-4.5-12.6-4.5
	c-4.2,0-7.9,0.7-11,1.9s-5.7,3.2-7.7,5.6s-3.6,5.2-4.6,8.4c-1,3.2-1.6,6.7-1.6,10.5v47.5h-14V32.1H539.8"/>
<path id="path18" class="st0" d="M14.4,28.9v11.9h0.3c2.4-4.9,6.1-8.4,11.2-10.7c5.1-2.2,10.7-3.3,16.8-3.3c6.8,0,12.7,1.2,17.7,3.7
	s9.2,5.9,12.6,10.1c3.3,4.2,5.9,9.2,7.6,14.7c1.7,5.6,2.5,11.5,2.5,17.7s-0.8,12.1-2.5,17.7s-4.1,10.4-7.5,14.5
	c-3.3,4.1-7.5,7.4-12.6,9.8c-5,2.4-10.9,3.5-17.6,3.5c-2.2,0-4.5-0.2-7.3-0.7c-2.6-0.5-5.3-1.1-7.9-2.2c-2.6-1-5.1-2.4-7.4-4.2
	c-2.3-1.7-4.3-4-5.9-6.6h-0.3v45.4H0V28.9H14.4 M66.4,60c-1-3.9-2.7-7.4-4.9-10.4c-2.2-3.1-5-5.4-8.5-7.3c-3.4-1.8-7.5-2.7-12.1-2.7
	c-4.9,0-9,1-12.4,2.8c-3.4,1.9-6.1,4.4-8.3,7.6c-2.2,3.1-3.7,6.7-4.7,10.7c-0.9,4-1.5,7.9-1.5,12c0,4.3,0.5,8.5,1.5,12.5
	s2.6,7.6,4.9,10.7c2.2,3.1,5.1,5.6,8.6,7.4s7.7,2.8,12.7,2.8s9.2-0.9,12.5-2.8s6-4.4,8.1-7.6c2-3.2,3.5-6.8,4.4-10.9
	s1.4-8.3,1.4-12.6C68,68,67.4,64,66.4,60.1L66.4,60z"/>
<path id="path21" class="st1" d="M476.7,40.8v29.8h28.2C503.4,54.9,492,42.5,476.7,40.8"/>
<path id="path23" class="st1" d="M476.7,107.1c15.9-1.5,27-14.2,28.2-29.8h-28.2V107.1"/>
<path id="path25" class="st1" d="M470.1,40.8c-15.8,1.6-26.7,14.3-27.9,29.8h27.9V40.8"/>
<path id="path27" class="st1" d="M442.2,77.2c1.4,15.7,12.7,28.1,27.9,29.8V77.2H442.2"/>
<path id="path29" class="st0" d="M476.7,107.1v11.3c22.9-1.6,39.7-19.6,41.3-41.3h-13c-1.2,15.9-12.4,28.6-28.2,29.9"/>
<path id="path31" class="st0" d="M470.1,40.8V29.6c-22.8,1.7-39.4,19.5-40.9,41.1h13c1.2-15.5,12.1-28.2,27.9-29.8"/>
<path id="path33" class="st0" d="M505,70.7h13c-1.5-21.8-18.3-39.6-41.3-41.1v11.2c15.3,1.7,26.8,14.2,28.2,29.8"/>
<path id="path35" class="st0" d="M442.2,77.2h-13c1.4,21.8,18,39.7,40.9,41.3v-11.4c-15.2-1.7-26.5-14.2-27.9-29.8"/>
<g id="logoTagLine">
	<path id="path38" class="st0" d="M348.8,170v-5.6h-0.1c-0.3,0.9-0.9,1.8-1.7,2.6c-0.8,0.8-1.6,1.5-2.5,2c-0.9,0.6-1.9,1-3.1,1.2
		c-1.1,0.3-2.2,0.5-3.2,0.5c-2.3,0-4.2-0.5-5.9-1.2c-1.7-0.8-3.1-1.9-4.1-3.4c-1.1-1.5-1.9-3.1-2.5-5s-0.8-3.9-0.8-6
		c0-2,0.2-4.1,0.8-6c0.6-1.9,1.4-3.5,2.5-5s2.5-2.6,4.1-3.4c1.7-0.8,3.6-1.2,5.9-1.2c1.1,0,2.2,0.1,3.2,0.5c1,0.2,2,0.7,2.9,1.2
		c0.9,0.6,1.7,1.2,2.4,2c0.7,0.8,1.2,1.7,1.6,2.8h0.1v-16.9h3.6v40.7h-3.3 M329,159.7c0.3,1.5,0.9,2.8,1.7,4
		c0.8,1.1,1.8,2.2,2.9,2.8c1.2,0.8,2.7,1.1,4.4,1.1c1.9,0,3.5-0.3,4.8-1.1c1.4-0.8,2.4-1.7,3.2-2.8c0.8-1.1,1.4-2.5,1.8-4
		c0.3-1.5,0.6-3.1,0.6-4.5c0-1.5-0.2-3.1-0.6-4.5c-0.3-1.5-0.9-2.8-1.8-4c-0.8-1.1-1.9-2.2-3.2-2.8c-1.4-0.8-2.9-1.1-4.8-1.1
		c-1.7,0-3.2,0.3-4.4,1.1c-1.2,0.8-2.3,1.7-2.9,2.8c-0.8,1.1-1.4,2.5-1.7,4c-0.3,1.5-0.6,3.1-0.6,4.5
		C328.4,156.8,328.6,158.3,329,159.7z"/>
	<path id="path40" class="st0" d="M359,129.3h3.6v5.8H359V129.3z M359,140.6h3.6V170H359V140.6z"/>
	<path id="path42" class="st0" d="M370.2,145.2c0.6-1.2,1.5-2.3,2.5-3.1c1-0.8,2.3-1.4,3.6-1.8c1.4-0.3,2.9-0.6,4.7-0.6
		c1.2,0,2.6,0.1,3.9,0.3c1.2,0.2,2.5,0.7,3.5,1.4c1,0.7,1.8,1.6,2.5,2.8c0.7,1.2,1,2.8,1,4.8v15.7c0,1.5,0.7,2.2,2.2,2.2
		c0.5,0,0.8-0.1,1.1-0.2v3.1c-0.5,0.1-0.8,0.1-1.1,0.2c-0.3,0-0.7,0.1-1.2,0.1c-0.9,0-1.6-0.1-2.2-0.3c-0.6-0.2-1-0.6-1.2-1
		c-0.3-0.5-0.6-1-0.6-1.6c-0.1-0.7-0.1-1.4-0.1-2h-0.1c-0.7,0.9-1.2,1.8-1.9,2.5c-0.7,0.8-1.4,1.4-2.3,1.8c-0.8,0.5-1.7,0.9-2.8,1.1
		c-1,0.2-2.3,0.5-3.7,0.5c-1.4,0-2.6-0.1-3.9-0.5c-1.2-0.3-2.3-0.8-3.2-1.6c-0.9-0.7-1.6-1.6-2.2-2.7s-0.8-2.4-0.8-3.9
		c0-2,0.5-3.6,1.4-4.8c0.9-1.1,2.2-2,3.6-2.6c1.5-0.6,3.2-1,5.1-1.2s3.7-0.5,5.8-0.7c0.8-0.1,1.5-0.2,2-0.3c0.6-0.1,1-0.3,1.5-0.6
		c0.3-0.3,0.7-0.7,0.9-1.1c0.2-0.5,0.3-1.1,0.3-1.9c0-1.2-0.2-2.3-0.6-2.9c-0.5-0.8-0.9-1.4-1.7-1.8c-0.7-0.5-1.5-0.8-2.5-0.9
		c-0.9-0.1-1.9-0.2-2.9-0.2c-2.3,0-4.2,0.6-5.6,1.6c-1.5,1.1-2.2,2.8-2.3,5.2h-3.6c-0.1-2,0.2-3.5,0.9-4.8 M388.1,154.1
		c-0.2,0.5-0.7,0.7-1.4,0.9c-0.7,0.2-1.2,0.3-1.7,0.5c-1.5,0.2-3.1,0.5-4.7,0.7s-3.1,0.6-4.4,0.9c-1.4,0.5-2.4,1-3.3,1.8
		s-1.2,1.9-1.2,3.3c0,0.9,0.2,1.7,0.6,2.4c0.3,0.7,0.8,1.4,1.5,1.8c0.6,0.6,1.4,0.9,2.2,1.1c0.8,0.2,1.6,0.5,2.5,0.5
		c1.4,0,2.7-0.2,4-0.7c1.2-0.5,2.4-1,3.3-1.8s1.7-1.8,2.3-2.9c0.6-1.1,0.8-2.4,0.8-3.9V154h-0.3v0.1L388.1,154.1z"/>
	<path id="path44" class="st0" d="M423.2,173.5c-0.5,1.7-1.2,3.2-2.3,4.4c-1,1.2-2.4,2.2-4,2.8c-1.7,0.7-3.6,1-6.1,1
		c-1.5,0-2.9-0.1-4.3-0.6c-1.4-0.3-2.6-0.9-3.7-1.6s-2-1.7-2.8-2.7c-0.8-1.1-1.1-2.5-1.2-4h3.6c0.2,1.1,0.6,2,1.1,2.7
		c0.6,0.8,1.2,1.4,2,1.8c0.8,0.5,1.6,0.8,2.6,1c0.9,0.2,1.9,0.3,2.9,0.3c3.3,0,5.8-0.9,7.3-2.8s2.3-4.7,2.3-8.2v-4h-0.1
		c-0.8,1.8-2,3.3-3.6,4.4s-3.5,1.7-5.7,1.7c-2.4,0-4.4-0.3-6-1.1c-1.7-0.8-3.1-1.8-4.1-3.2c-1.1-1.4-1.9-2.9-2.4-4.8
		c-0.5-1.8-0.8-3.9-0.8-5.9s0.3-4,0.9-5.8s1.5-3.4,2.6-4.8s2.5-2.4,4.2-3.2c1.7-0.8,3.5-1.1,5.7-1.1c1.1,0,2.2,0.1,3.1,0.5
		c1,0.3,1.8,0.7,2.6,1.2c0.8,0.6,1.5,1.1,2.2,1.9c0.7,0.7,1.1,1.5,1.5,2.3h0.1v-5.1h3.6v27c-0.5,1.8-0.7,3.7-1.1,5.6 M415.1,165.3
		c1.1-0.7,2.2-1.6,2.9-2.6c0.8-1.1,1.4-2.4,1.8-3.7c0.5-1.4,0.6-2.8,0.6-4.3s-0.2-2.8-0.6-4.3c-0.3-1.5-0.9-2.7-1.7-4
		c-0.8-1.1-1.7-2.2-2.9-2.8c-1.2-0.7-2.6-1.1-4.3-1.1c-1.7,0-3.2,0.3-4.4,1c-1.2,0.7-2.3,1.6-3.1,2.7c-0.8,1.1-1.4,2.5-1.7,3.9
		c-0.3,1.5-0.6,2.9-0.6,4.4s0.2,2.9,0.6,4.3c0.3,1.4,1,2.6,1.8,3.7s1.8,1.9,3.1,2.6c1.2,0.7,2.6,1,4.3,1
		C412.5,166.3,413.9,166,415.1,165.3L415.1,165.3z"/>
	<path id="path46" class="st0" d="M434.3,140.6v5.1h0.1c0.7-1.8,1.9-3.2,3.6-4.3c1.7-1.1,3.6-1.6,5.8-1.6c2,0,3.7,0.2,5.2,0.8
		c1.4,0.6,2.5,1.2,3.3,2.3c0.8,1,1.5,2.2,1.8,3.5c0.3,1.4,0.6,2.9,0.6,4.8v18.9h-3.6v-18.4c0-1.2-0.1-2.4-0.3-3.5
		c-0.2-1.1-0.7-2-1.2-2.8c-0.6-0.8-1.4-1.5-2.3-1.9c-1-0.5-2.2-0.7-3.6-0.7c-1.5,0-2.7,0.2-3.9,0.8c-1.1,0.6-2,1.2-2.8,2.2
		c-0.8,0.9-1.4,1.9-1.8,3.2c-0.5,1.2-0.7,2.6-0.7,4v17.1h-3.6v-29.4h3.5"/>
	<path id="path48" class="st0" d="M479.8,141c1.7,0.8,3.2,1.9,4.3,3.4c1.1,1.4,2,3.1,2.7,4.9c0.6,1.9,0.9,3.9,0.9,6
		c0,2.2-0.3,4.1-0.9,6s-1.5,3.5-2.7,4.9c-1.1,1.4-2.6,2.5-4.3,3.3c-1.7,0.8-3.7,1.2-6,1.2s-4.2-0.5-6-1.2c-1.7-0.8-3.2-1.9-4.3-3.3
		c-1.1-1.4-2-3.1-2.7-4.9c-0.6-1.9-0.9-3.9-0.9-6c0-2.2,0.3-4.1,0.9-6s1.5-3.5,2.7-4.9c1.1-1.4,2.6-2.5,4.3-3.4
		c1.7-0.8,3.7-1.2,6-1.2S478.1,140.3,479.8,141 M469.4,143.8c-1.2,0.7-2.4,1.7-3.2,2.8c-0.9,1.1-1.5,2.5-1.9,4
		c-0.5,1.5-0.7,3.1-0.7,4.5c0,1.6,0.2,3.1,0.7,4.5c0.5,1.5,1.1,2.8,1.9,4c0.9,1.1,1.9,2.2,3.2,2.8c1.2,0.7,2.8,1.1,4.5,1.1
		s3.2-0.3,4.5-1.1c1.2-0.7,2.4-1.7,3.2-2.8c0.9-1.1,1.5-2.5,1.9-4c0.5-1.5,0.7-3.1,0.7-4.5c0-1.6-0.2-3.1-0.7-4.5
		c-0.5-1.5-1.1-2.8-1.9-4c-0.9-1.1-1.9-2.2-3.2-2.8c-1.2-0.7-2.8-1.1-4.5-1.1C472.1,142.8,470.6,143.2,469.4,143.8z"/>
	<path id="path50" class="st0" d="M510.1,146.3c-0.5-0.8-1-1.5-1.7-2c-0.7-0.6-1.5-0.9-2.4-1.1s-1.9-0.3-2.9-0.3
		c-0.8,0-1.6,0.1-2.4,0.2c-0.8,0.2-1.6,0.5-2.3,0.9c-0.7,0.5-1.2,0.9-1.7,1.6s-0.7,1.5-0.7,2.4c0,0.8,0.2,1.5,0.6,2
		c0.5,0.6,0.9,1,1.5,1.4c0.6,0.3,1.2,0.7,2,0.9c0.7,0.2,1.4,0.5,2,0.6l4.8,1.1c1,0.1,2,0.5,3.1,0.8c1,0.5,1.9,0.9,2.7,1.6
		c0.8,0.7,1.4,1.5,1.9,2.4s0.8,2,0.8,3.4c0,1.6-0.3,2.9-1.1,4.1c-0.7,1.1-1.7,2-2.7,2.7c-1.1,0.7-2.4,1.2-3.7,1.5
		c-1.4,0.3-2.8,0.5-4.2,0.5c-3.4,0-6.2-0.8-8.4-2.5c-2.2-1.6-3.4-4.3-3.6-7.8h3.6c0.1,2.4,1,4.3,2.6,5.4c1.6,1.2,3.6,1.8,6,1.8
		c0.9,0,1.8-0.1,2.7-0.3c0.9-0.2,1.8-0.6,2.6-1c0.8-0.5,1.5-1,1.9-1.7c0.6-0.7,0.8-1.6,0.8-2.6c0-0.9-0.2-1.6-0.6-2.2
		c-0.3-0.6-0.8-1.1-1.5-1.5c-0.6-0.5-1.2-0.7-2-1c-0.8-0.2-1.6-0.5-2.4-0.7l-4.7-1c-1.1-0.3-2.3-0.7-3.3-1s-1.8-0.9-2.6-1.5
		c-0.8-0.6-1.4-1.4-1.7-2.2c-0.5-0.9-0.7-1.9-0.7-3.2c0-1.5,0.3-2.7,1-3.9c0.7-1,1.6-1.9,2.6-2.6s2.3-1.1,3.5-1.5
		c1.4-0.3,2.6-0.5,3.9-0.5c1.5,0,2.8,0.2,4.1,0.6c1.2,0.3,2.4,1,3.4,1.8s1.7,1.8,2.3,2.9c0.6,1.1,0.9,2.6,1,4.2h-3.6
		c0-0.9-0.2-1.9-0.6-2.7"/>
	<path id="path52" class="st0" d="M532.2,140.6v3.1h-5.9v19.8c0,1.1,0.1,2.2,0.5,2.7c0.3,0.7,1.1,1,2.4,1.1c1,0,2-0.1,3.1-0.2v3.1
		c-0.6,0-1,0-1.6,0s-1,0.1-1.6,0.1c-2.4,0-4.1-0.5-5-1.4s-1.4-2.6-1.4-5.2v-20.1h-5.1v-3.1h5.1v-8.8h3.6v8.8h5.9"/>
	<path id="path54" class="st0" d="M537.5,129.3h3.6v5.8h-3.6V129.3z M537.5,140.6h3.6V170h-3.6V140.6z"/>
	<path id="path56" class="st0" d="M566,144.6c-1.4-1.2-3.2-1.9-5.6-1.9c-1.7,0-3.2,0.3-4.5,1.1c-1.2,0.7-2.4,1.7-3.2,2.8
		c-0.9,1.1-1.5,2.5-1.9,4c-0.5,1.5-0.7,3.1-0.7,4.5c0,1.6,0.2,3.1,0.7,4.5c0.5,1.5,1.1,2.8,1.9,4c0.9,1.1,1.9,2.2,3.2,2.8
		c1.2,0.7,2.8,1.1,4.5,1.1c1.1,0,2.2-0.2,3.2-0.7s1.8-1,2.6-1.7c0.8-0.8,1.4-1.6,1.9-2.6s0.8-2.2,0.9-3.4h3.6
		c-0.5,3.6-1.8,6.4-4,8.4s-4.9,2.9-8.2,2.9c-2.3,0-4.2-0.5-6-1.2c-1.7-0.8-3.2-1.9-4.3-3.3s-2-3.1-2.7-4.9c-0.6-1.9-0.9-3.9-0.9-6
		c0-2.2,0.3-4.1,0.9-6c0.6-1.9,1.5-3.5,2.7-4.9c1.1-1.4,2.6-2.5,4.3-3.4c1.7-0.8,3.7-1.2,6-1.2c3.2,0,5.8,0.8,8.1,2.5
		c2.2,1.7,3.5,4.2,3.9,7.6h-3.6c-0.6-2-1.5-3.9-2.8-5.1"/>
	<path id="path58" class="st0" d="M594.4,146.3c-0.5-0.8-1-1.5-1.7-2c-0.7-0.6-1.5-0.9-2.4-1.1s-1.9-0.3-2.9-0.3
		c-0.8,0-1.6,0.1-2.4,0.2c-0.8,0.2-1.6,0.5-2.3,0.9c-0.7,0.5-1.2,0.9-1.7,1.6s-0.7,1.5-0.7,2.4c0,0.8,0.2,1.5,0.6,2
		c0.3,0.6,0.9,1,1.5,1.4c0.6,0.3,1.2,0.7,2,0.9c0.7,0.2,1.4,0.5,2,0.6l4.8,1.1c1,0.1,2,0.5,3.1,0.8c1,0.5,1.9,0.9,2.7,1.6
		s1.4,1.5,1.9,2.4s0.8,2,0.8,3.4c0,1.6-0.3,2.9-1.1,4.1c-0.7,1.1-1.7,2-2.7,2.7c-1.1,0.7-2.4,1.2-3.7,1.5c-1.4,0.3-2.8,0.5-4.2,0.5
		c-3.5,0-6.2-0.8-8.4-2.5c-2.2-1.6-3.4-4.3-3.6-7.8h3.6c0.1,2.4,1,4.3,2.6,5.4c1.6,1.2,3.6,1.8,6,1.8c0.9,0,1.8-0.1,2.7-0.3
		c0.9-0.2,1.8-0.6,2.6-1c0.8-0.5,1.5-1,1.9-1.7c0.6-0.7,0.8-1.6,0.8-2.6c0-0.9-0.2-1.6-0.6-2.2c-0.3-0.6-0.8-1.1-1.5-1.5
		c-0.6-0.5-1.2-0.7-2-1c-0.8-0.2-1.6-0.5-2.4-0.7l-4.7-1c-1.1-0.3-2.3-0.7-3.3-1s-1.8-0.9-2.6-1.5s-1.4-1.4-1.7-2.2
		c-0.5-0.9-0.7-1.9-0.7-3.2c0-1.5,0.3-2.7,1-3.9c0.7-1,1.6-1.9,2.6-2.6s2.3-1.1,3.5-1.5c1.4-0.3,2.6-0.5,3.9-0.5
		c1.5,0,2.8,0.2,4.1,0.6c1.2,0.3,2.4,1,3.4,1.8s1.7,1.8,2.3,2.9s0.9,2.6,1,4.2h-3.6c0.1-0.9-0.1-1.9-0.6-2.7"/>
</g>
</svg>
