<!-- Generator: Adobe Illustrator 21.1.0, SVG Export Plug-In  -->
<svg version="1.1"
	 xmlns="http://www.w3.org/2000/svg" xmlns:xlink="http://www.w3.org/1999/xlink" xmlns:a="http://ns.adobe.com/AdobeSVGViewerExtensions/3.0/"
	 x="0px" y="0px" width="64.6px" height="64.6px" viewBox="0 0 64.6 64.6" style="enable-background:new 0 0 64.6 64.6;"
	 xml:space="preserve">
<style type="text/css">
	.st0{fill:#FFFFFF;}
</style>
<defs>
</defs>
<g>
	<path class="st0" d="M32.3,0C14.5,0,0,14.5,0,32.3s14.5,32.3,32.3,32.3s32.3-14.5,32.3-32.3S50.1,0,32.3,0z M32.3,62.1
		c-16.5,0-29.8-13.4-29.8-29.8S15.8,2.4,32.3,2.4c16.5,0,29.8,13.4,29.8,29.8S48.7,62.1,32.3,62.1z"/>
	<path class="st0" d="M51.4,20.5c0-0.1,0-0.1,0-0.2c0-0.1,0-0.1,0-0.1c0,0,0-0.1,0-0.1c0-0.1-0.1-0.1-0.1-0.2c0,0,0,0,0-0.1
		c0,0,0,0,0,0c0-0.1-0.1-0.1-0.2-0.2c0,0-0.1-0.1-0.1-0.1c0,0-0.1-0.1-0.1-0.1c0,0-0.1,0-0.1-0.1c0,0-0.1-0.1-0.1-0.1c0,0,0,0,0,0
		c-0.1,0-0.2-0.1-0.4-0.1c-0.1,0-0.1,0-0.2,0c0,0,0,0,0,0H14.5c0,0,0,0,0,0c0,0-0.1,0-0.1,0c-0.2,0-0.4,0.1-0.6,0.2c0,0,0,0,0,0
		c-0.1,0-0.1,0.1-0.2,0.1c0,0,0,0-0.1,0.1c-0.1,0.1-0.1,0.1-0.1,0.2c0,0,0,0,0,0c0,0,0,0.1,0,0.1c0,0.1-0.1,0.1-0.1,0.2
		c0,0,0,0.1,0,0.1c0,0,0,0.1,0,0.1c0,0.1,0,0.1,0,0.2c0,0,0,0.1,0,0.1v23.3c0,0.8,0.6,1.4,1.4,1.4H50c0.8,0,1.4-0.6,1.4-1.4
		L51.4,20.5C51.4,20.6,51.4,20.5,51.4,20.5z M16,23.2L26.2,30L16,41.2V23.2z M32.3,30.6l-13-8.6h26.1L32.3,30.6z M27.6,30.9l3.9,2.6
		c0.2,0.2,0.5,0.2,0.8,0.2c0.3,0,0.5-0.1,0.8-0.2l3.9-2.6l10.6,11.7H16.9L27.6,30.9z M38.4,30l10.2-6.7v18L38.4,30z"/>
</g>
</svg>
