<!-- Generator: Adobe Illustrator 21.1.0, SVG Export Plug-In  -->
<svg version="1.1"
	 xmlns="http://www.w3.org/2000/svg" xmlns:xlink="http://www.w3.org/1999/xlink" xmlns:a="http://ns.adobe.com/AdobeSVGViewerExtensions/3.0/"
	 x="0px" y="0px" width="64.6px" height="64.6px" viewBox="0 0 64.6 64.6" style="enable-background:new 0 0 64.6 64.6;"
	 xml:space="preserve">
<style type="text/css">
	.st0{fill:#FFFFFF;}
</style>
<defs>
</defs>
<g>
	<path class="st0" d="M32.3,0C14.5,0,0,14.5,0,32.3s14.5,32.3,32.3,32.3c17.8,0,32.3-14.5,32.3-32.3S50.1,0,32.3,0z M32.3,62.1
		c-16.5,0-29.8-13.4-29.8-29.8S15.8,2.4,32.3,2.4c16.5,0,29.8,13.4,29.8,29.8S48.7,62.1,32.3,62.1z"/>
	<g>
		<path class="st0" d="M42.3,13.1H22.2c-0.8,0-1.4,0.6-1.4,1.4V50c0,0.8,0.6,1.4,1.4,1.4h20.1c0.8,0,1.4-0.6,1.4-1.4V14.5
			C43.7,13.8,43.1,13.1,42.3,13.1z M29.7,15.4h5.1c0.4,0,0.8,0.4,0.8,0.8c0,0.4-0.4,0.8-0.8,0.8h-5.1c-0.4,0-0.8-0.4-0.8-0.8
			C28.9,15.7,29.3,15.4,29.7,15.4z M37.3,49.2h-10c-0.4,0-0.8-0.4-0.8-0.8c0-0.4,0.4-0.8,0.8-0.8h10c0.4,0,0.8,0.4,0.8,0.8
			C38.1,48.8,37.7,49.2,37.3,49.2z M41.2,45.6H23.3V18.5h17.9V45.6z"/>
	</g>
</g>
</svg>
